<svg width="19" height="26" viewBox="0 0 19 26" fill="none" xmlns="http://www.w3.org/2000/svg">
<g clip-path="url(#clip0_1_19)">
<path d="M18.1444 24.9316H0.376383C0.325496 24.9315 0.275152 24.9214 0.228385 24.9018C0.181618 24.8821 0.139396 24.8535 0.104263 24.8175C0.0691311 24.7815 0.0418152 24.7388 0.0239622 24.6922C0.00610918 24.6456 -0.0019112 24.5959 0.000383539 24.5462L0.846383 7.16251C0.851012 7.06803 0.89266 6.97893 0.962678 6.9137C1.0327 6.84848 1.1257 6.81215 1.22238 6.81226H17.2984C17.3951 6.81215 17.4881 6.84848 17.5581 6.9137C17.6281 6.97893 17.6698 7.06803 17.6744 7.16251L18.5204 24.5452C18.5227 24.5949 18.5147 24.6446 18.4968 24.6912C18.479 24.7378 18.4516 24.7805 18.4165 24.8165C18.3814 24.8525 18.3391 24.8812 18.2924 24.9008C18.2456 24.9204 18.1953 24.9306 18.1444 24.9307V24.9316ZM0.770384 24.1959H17.7494L16.9394 7.54799H1.58038L0.770384 24.1959Z" fill="white"/>
<path d="M13.3244 9.01948C13.2246 9.01948 13.129 8.98073 13.0585 8.91173C12.988 8.84275 12.9484 8.74918 12.9484 8.65161V4.99447C12.9484 4.03725 12.5597 3.11923 11.8679 2.44238C11.1761 1.76552 10.2377 1.38527 9.25936 1.38527C8.28098 1.38527 7.34266 1.76552 6.65084 2.44238C5.95902 3.11923 5.57036 4.03725 5.57036 4.99447V8.65161C5.57036 8.74918 5.53075 8.84275 5.46023 8.91173C5.38972 8.98073 5.29408 9.01948 5.19436 9.01948C5.09464 9.01948 4.999 8.98073 4.92849 8.91173C4.85797 8.84275 4.81836 8.74918 4.81836 8.65161V4.99447C4.81836 3.84212 5.28625 2.73697 6.1191 1.92214C6.95195 1.10731 8.08153 0.649536 9.25936 0.649536C10.4372 0.649536 11.5668 1.10731 12.3996 1.92214C13.2325 2.73697 13.7004 3.84212 13.7004 4.99447V8.65161C13.7004 8.74918 13.6607 8.84275 13.5902 8.91173C13.5197 8.98073 13.4241 9.01948 13.3244 9.01948Z" fill="white"/>
</g>
<defs>
<clipPath id="clip0_1_19">
<rect width="19" height="24.4592" fill="white" transform="translate(0 0.649536)"/>
</clipPath>
</defs>
</svg>
