<svg width="27" height="26" viewBox="0 0 27 26" fill="none" xmlns="http://www.w3.org/2000/svg">
<g clip-path="url(#clip0_1_22)">
<path d="M26.355 7.81022C25.97 3.65998 22.967 0.649536 19.21 0.649536C17.9788 0.656022 16.7705 0.975638 15.7037 1.57701C14.6368 2.17837 13.7482 3.04083 13.125 4.0797C12.534 3.04476 11.6728 2.18189 10.6294 1.57923C9.58594 0.976569 8.39767 0.655744 7.18599 0.649536C3.42999 0.649536 0.426992 3.65704 0.0419917 7.81022C-0.0568283 8.72291 0.0191361 9.64562 0.265992 10.5311C0.835896 12.8377 2.11088 14.9195 3.92099 16.4991L13.121 24.6646L22.476 16.4991C24.286 14.9195 25.561 12.8377 26.131 10.5311C26.3775 9.64555 26.4534 8.72291 26.355 7.81022ZM25.142 10.3031C24.6203 12.4125 23.4538 14.3162 21.798 15.7604L13.128 23.3281L4.60399 15.7624C2.94638 14.318 1.77814 12.4136 1.25499 10.3031C1.03946 9.54379 0.967946 8.75227 1.04399 7.96773L1.05199 7.91784C1.38199 4.28222 3.96199 1.64258 7.18699 1.64258C8.37539 1.65954 9.53139 2.02418 10.5061 2.68958C11.4808 3.35497 12.2296 4.29062 12.656 5.37603L13.124 6.46007L13.592 5.37603C14.0488 4.28146 14.8259 3.34328 15.8257 2.67924C16.8256 2.0152 18.0036 1.65491 19.212 1.64356C22.437 1.64356 25.012 4.28515 25.353 7.96578C25.4292 8.75134 25.3574 9.54391 25.141 10.3041L25.142 10.3031Z" fill="white"/>
</g>
<defs>
<clipPath id="clip0_1_22">
<rect width="27" height="24.4592" fill="white" transform="translate(0 0.649536)"/>
</clipPath>
</defs>
</svg>
