<svg width="25" height="26" viewBox="0 0 25 26" fill="none" xmlns="http://www.w3.org/2000/svg">
<g clip-path="url(#clip0_1_24)">
<path d="M12.489 0.649536C9.17671 0.649536 6.00009 1.93687 3.65794 4.22835C1.3158 6.51984 0 9.62774 0 12.8684C0 16.109 1.3158 19.2169 3.65794 21.5085C6.00009 23.7999 9.17671 25.0872 12.489 25.0872C12.865 25.0872 13.2397 25.0709 13.613 25.0383C13.96 25.008 14.304 24.961 14.645 24.9033L14.776 24.8808C17.8371 24.3232 20.5748 22.667 22.4525 20.237C24.3302 17.8069 25.2124 14.7783 24.9261 11.7448C24.6398 8.71147 23.2057 5.89209 20.9049 3.83954C18.6041 1.78699 15.6027 0.649294 12.489 0.649536ZM11.489 24.2282H11.46C11.136 24.1998 10.815 24.1578 10.496 24.104L10.442 24.0952C10.1307 24.0404 9.82233 23.9732 9.517 23.8936L9.443 23.875C9.143 23.7958 8.851 23.7048 8.561 23.603L8.471 23.5717C8.187 23.4739 7.907 23.3545 7.632 23.2313L7.532 23.1863C7.262 23.064 6.998 22.927 6.738 22.7822L6.628 22.7215C6.37267 22.576 6.123 22.4205 5.879 22.2548L5.768 22.1795C5.528 22.0122 5.293 21.8351 5.068 21.6502L5 21.5964V18.1623C5.00159 16.9747 5.48453 15.8361 6.34291 14.9962C7.2013 14.1564 8.36506 13.6839 9.579 13.6824H15.4C16.6145 13.6832 17.779 14.1553 18.638 14.9953C19.4971 15.8351 19.9804 16.9741 19.982 18.1623V21.5964L19.927 21.6414C19.6943 21.8312 19.4553 22.0112 19.21 22.1815L19.11 22.247C18.8627 22.4153 18.609 22.5738 18.349 22.7225L18.249 22.7763C17.986 22.9231 17.718 23.061 17.449 23.1863L17.354 23.2273C17.077 23.3526 16.795 23.468 16.509 23.5708L16.426 23.6001C16.135 23.6979 15.839 23.7958 15.54 23.874L15.468 23.8917C15.162 23.9709 14.854 24.0384 14.542 24.0932L14.488 24.101C14.169 24.1558 13.847 24.1989 13.523 24.2263H13.494C13.161 24.2546 12.828 24.2693 12.494 24.2693C12.16 24.2693 11.821 24.2566 11.489 24.2292V24.2282ZM20.818 20.8411V18.1623C20.8161 16.7577 20.2445 15.4112 19.2286 14.4185C18.2128 13.426 16.8357 12.8684 15.4 12.8684H9.575C8.14031 12.8699 6.76482 13.4282 5.75025 14.4206C4.73567 15.413 4.16485 16.7587 4.163 18.1623V20.8411C2.55677 19.2371 1.47031 17.2048 1.03984 14.9992C0.609375 12.7935 0.854068 10.5126 1.74324 8.4424C2.63241 6.37223 4.12648 4.60496 6.0381 3.3622C7.94973 2.11943 10.1938 1.45649 12.489 1.45649C14.7842 1.45649 17.0283 2.11943 18.9399 3.3622C20.8515 4.60496 22.3456 6.37223 23.2348 8.4424C24.1239 10.5126 24.3686 12.7935 23.9382 14.9992C23.5077 17.2048 22.4212 19.2371 20.815 20.8411H20.818Z" fill="white"/>
<path d="M12.4892 3.90747C11.6658 3.90747 10.8609 4.14634 10.1763 4.59388C9.49173 5.04142 8.95816 5.67753 8.64307 6.42176C8.32798 7.166 8.24553 7.98493 8.40616 8.77501C8.56679 9.56508 8.96328 10.2908 9.54549 10.8605C10.1277 11.4301 10.8695 11.818 11.677 11.9751C12.4846 12.1322 13.3216 12.0516 14.0823 11.7433C14.843 11.435 15.4931 10.913 15.9506 10.2432C16.408 9.57343 16.6522 8.78597 16.6522 7.98042C16.6522 6.9002 16.2136 5.86424 15.4329 5.10041C14.6522 4.33658 13.5933 3.90747 12.4892 3.90747ZM12.4892 11.2384C11.8306 11.2384 11.1867 11.0473 10.6391 10.6893C10.0915 10.3313 9.6647 9.8225 9.41266 9.22718C9.16062 8.63187 9.09467 7.97681 9.22316 7.34482C9.35165 6.71284 9.6688 6.13232 10.1345 5.67668C10.6002 5.22105 11.1936 4.91076 11.8395 4.78505C12.4855 4.65935 13.155 4.72386 13.7635 4.97045C14.372 5.21704 14.8921 5.63461 15.258 6.17039C15.6239 6.70615 15.8192 7.33606 15.8192 7.98042C15.8192 8.40826 15.733 8.8319 15.5657 9.22718C15.3983 9.62246 15.1531 9.98161 14.8438 10.2841C14.5346 10.5867 14.1675 10.8267 13.7635 10.9904C13.3595 11.1542 12.9265 11.2384 12.4892 11.2384Z" fill="white"/>
</g>
<defs>
<clipPath id="clip0_1_24">
<rect width="25" height="24.4592" fill="white" transform="translate(0 0.649536)"/>
</clipPath>
</defs>
</svg>
